# File created by Blade
# Date/Time:  Tue Jan 27 20:02:46 2015
#---------------------------------------------------------
:version 1.10
:name HOM
:units
  mass 1.0
  length 1.000000
  angle deg
:documentation
     Acclaim Skeleton File
:root
   axis xyz
   order TX TY TZ RX RY RZ
   position 0.000000 0.000000 0.000000
   orientation 0 0 0
:bonedata
   begin
      id 1
      name Spine_dum
      direction 0.000000 1.000000 0.000000
      length 6.116652
      axis 0.0 0.0 0.0 xyz
   end
   begin
      id 2
      name LeftUpLeg_dum
      direction 1.000000 0.000000 0.000000
      length 4.711765
      axis 0.0 0.0 0.0 xyz
   end
   begin
      id 3
      name RightUpLeg_dum
      direction -1.000000 0.000000 0.000000
      length 4.711765
      axis 0.0 0.0 0.0 xyz
   end
   begin
      id 4
      name Spine
      direction 0.000000 1.000000 0.000000
      length 0.000000
      axis 0.0 0.0 0.0 xyz
      dof rx ry rz
   end
   begin
      id 5
      name Spine_dum1
      direction 0.000000 1.000000 0.000000
      length 15.225563
      axis 0.0 0.0 0.0 xyz
   end
   begin
      id 6
      name Spine_dum2
      direction 0.000000 1.000000 0.000000
      length 8.977654
      axis 0.0 0.0 0.0 xyz
   end
   begin
      id 7
      name Spine_dum3
      direction 0.000000 1.000000 0.000000
      length 8.977654
      axis 0.0 0.0 0.0 xyz
   end
   begin
      id 8
      name Head
      direction 0.000000 1.000000 0.000000
      length 4.527550
      axis 0.0 0.0 0.0 xyz
      dof rx ry rz
   end
   begin
      id 9
      name LeftShoulder
      direction 1.000000 0.000000 0.000000
      length 7.110130
      axis 0.0 0.0 -90.0 xyz
      dof rx ry rz
   end
   begin
      id 10
      name LeftArm
      direction 1.000000 0.000000 0.000000
      length 10.398341
      axis 0.0 0.0 -90.0 xyz
      dof rx ry rz
   end
   begin
      id 11
      name LeftForeArm
      direction 1.000000 0.000000 0.000000
      length 8.888997
      axis 0.0 0.0 -90.0 xyz
      dof ry rz rx
   end
   begin
      id 12
      name LeftHand
      direction 0.000000 0.000000 0.000000
      length 0.000000
      axis 0.0 0.0 -90.0 xyz
      dof rx ry rz
   end
   begin
      id 13
      name LeftHand_dum1
      direction 0.000000 0.000000 0.000000
      length 0.000000
      axis 0.0 0.0 -90.0 xyz
   end
   begin
      id 14
      name LeftHand_dum2
      direction 1.000000 0.000000 0.000000
      length 3.937000
      axis 0.0 0.0 -90.0 xyz
   end
   begin
      id 15
      name LeftHandThumb1
      direction 0.000000 0.000000 1.000000
      length 3.937000
      axis 0.0 0.0 -90.0 xyz
      dof rx rz ry
   end
   begin
      id 16
      name RightShoulder
      direction -1.000000 0.000000 0.000000
      length 7.110130
      axis 0.0 0.0 90.0 xyz
      dof rx ry rz
   end
   begin
      id 17
      name RightArm
      direction -1.000000 0.000000 0.000000
      length 10.398341
      axis 0.0 0.0 90.0 xyz
      dof rx ry rz
   end
   begin
      id 18
      name RightForeArm
      direction -1.000000 0.000000 0.000000
      length 8.888997
      axis 0.0 0.0 90.0 xyz
      dof ry rz rx
   end
   begin
      id 19
      name RightHand
      direction 0.000000 0.000000 0.000000
      length 0.000000
      axis 0.0 0.0 90.0 xyz
      dof rx ry rz
   end
   begin
      id 20
      name RightHand_dum1
      direction 0.000000 0.000000 0.000000
      length 0.000000
      axis 0.0 0.0 90.0 xyz
   end
   begin
      id 21
      name RightHand_dum2
      direction -1.000000 0.000000 0.000000
      length 3.937000
      axis 0.0 0.0 90.0 xyz
   end
   begin
      id 22
      name RightHandThumb1
      direction 0.000000 0.000000 1.000000
      length 3.937000
      axis 0.0 0.0 90.0 xyz
      dof rx rz ry
   end
   begin
      id 23
      name LeftUpLeg
      direction 0.000000 -1.000000 0.000000
      length 15.510451
      axis 0.0 0.0 0.0 xyz
      dof rx ry rz
   end
   begin
      id 24
      name LeftLeg
      direction 0.000000 -1.000000 0.000000
      length 14.858061
      axis 0.0 0.0 0.0 xyz
      dof rx ry rz
   end
   begin
      id 25
      name LeftFoot
      direction 0.000000 -0.258819 0.965926
      length 5.128852
      axis 15.0 0.0 0.0 xyz
      dof rx ry rz
   end
   begin
      id 26
      name LeftToeBase
      direction 0.000000 0.000000 1.000000
      length 2.952750
      axis 0.0 0.0 0.0 xyz
      dof rx ry rz
   end
   begin
      id 27
      name RightUpLeg
      direction 0.000000 -1.000000 0.000000
      length 15.510451
      axis 0.0 0.0 0.0 xyz
      dof rx ry rz
   end
   begin
      id 28
      name RightLeg
      direction 0.000000 -1.000000 0.000000
      length 14.858061
      axis 0.0 0.0 0.0 xyz
      dof rx ry rz
   end
   begin
      id 29
      name RightFoot
      direction 0.000000 -0.258819 0.965926
      length 5.128852
      axis 15.0 0.0 0.0 xyz
      dof rx ry rz
   end
   begin
      id 30
      name RightToeBase
      direction 0.000000 0.000000 1.000000
      length 2.952750
      axis 0.0 0.0 0.0 xyz
      dof rx ry rz
   end
:hierarchy
   begin
      root Spine_dum LeftUpLeg_dum RightUpLeg_dum
      Spine_dum Spine
      LeftUpLeg_dum LeftUpLeg
      RightUpLeg_dum RightUpLeg
      Spine Spine_dum1 Spine_dum2 Spine_dum3
      Spine_dum1 Head
      Spine_dum2 LeftShoulder
      Spine_dum3 RightShoulder
      LeftShoulder LeftArm
      LeftArm LeftForeArm
      LeftForeArm LeftHand
      LeftHand LeftHand_dum1 LeftHand_dum2
      LeftHand_dum1 LeftHandThumb1
      RightShoulder RightArm
      RightArm RightForeArm
      RightForeArm RightHand
      RightHand RightHand_dum1 RightHand_dum2
      RightHand_dum1 RightHandThumb1
      LeftUpLeg LeftLeg
      LeftLeg LeftFoot
      LeftFoot LeftToeBase
      RightUpLeg RightLeg
      RightLeg RightFoot
      RightFoot RightToeBase
   end

# File created by Blade
# Date/Time:  Tue Jan 27 20:02:37 2015
# Frame Rate: 120.000 fps
#------------------------------------------------------
:FULLY-SPECIFIED
:DEGREES
1451
root 6.266313 33.207796 5.036391 -11.412256 14.180922 -13.790629
Spine 9.683443 -6.784098 7.636765
Head 10.749134 -10.418321 7.785724
LeftShoulder -12.205478 -2.859828 28.957840
LeftArm -5.282211 -6.628879 -80.754785
LeftForeArm -10.679021 -0.000000 113.567733
LeftHand 13.175856 0.000000 -7.167207
LeftHandThumb1 -26.253704 0.000000 33.147579
RightShoulder -21.613365 -17.188851 -19.040349
RightArm 11.468597 -22.101886 87.601475
RightForeArm -12.256451 -0.000000 10.196797
RightHand 17.697353 -0.000000 7.528969
RightHandThumb1 -24.326973 -0.000000 -32.862282
LeftUpLeg 14.825994 -4.231834 6.798066
LeftLeg -1.392669 -0.000000 0.000000
LeftFoot -13.800688 8.566964 -14.201054
LeftToeBase 20.276709 -0.000000 -0.000000
RightUpLeg -51.564614 16.076091 1.363152
RightLeg 119.351292 -0.000000 -0.000000
RightFoot 32.216302 -16.216563 -0.502661
RightToeBase 21.674103 -0.000000 -0.000000
1452
root 6.271166 33.195675 5.033486 -11.329426 13.979958 -13.657906
Spine 9.666234 -6.766679 7.508619
Head 10.716258 -10.224972 7.684054
LeftShoulder -12.291724 -2.742498 28.935045
LeftArm -5.302889 -6.669501 -80.730953
LeftForeArm -10.584926 -0.000000 113.708660
LeftHand 13.123731 -0.000000 -7.334596
LeftHandThumb1 -26.253704 0.000000 33.147579
RightShoulder -21.544470 -17.200751 -19.096109
RightArm 11.389306 -21.880090 87.776040
RightForeArm -12.384581 -0.000000 10.211114
RightHand 17.677268 -0.000000 7.544531
RightHandThumb1 -24.326973 -0.000000 -32.862282
LeftUpLeg 14.865161 -4.118499 6.678390
LeftLeg -1.440602 -0.000000 0.000000
LeftFoot -13.838784 8.603427 -14.283957
LeftToeBase 20.262998 -0.000000 -0.000000
RightUpLeg -51.538712 15.974099 1.539319
RightLeg 119.281053 -0.000000 -0.000000
RightFoot 32.529937 -15.924528 -0.950061
RightToeBase 20.598555 -0.000000 -0.000000
1453
root 6.279104 33.182589 5.031029 -11.268827 13.802081 -13.516815
Spine 9.673551 -6.757813 7.375741
Head 10.677613 -10.040529 7.561469
LeftShoulder -12.380618 -2.600817 28.922198
LeftArm -5.262904 -6.703589 -80.742734
LeftForeArm -10.592887 -0.000000 113.819220
LeftHand 13.036564 0.000000 -7.316445
LeftHandThumb1 -26.253704 0.000000 33.147579
RightShoulder -21.501196 -17.237970 -19.156628
RightArm 11.342941 -21.877928 87.897285
RightForeArm -12.683733 -0.000000 10.227659
RightHand 17.910316 -0.000000 8.100754
RightHandThumb1 -24.326973 -0.000000 -32.862282
LeftUpLeg 14.927456 -3.970806 6.552360
LeftLeg -1.522893 -0.000000 0.000000
LeftFoot -13.823256 8.627382 -14.317172
LeftToeBase 20.239229 -0.000000 -0.000000
RightUpLeg -51.484539 15.883773 1.651702
RightLeg 119.194995 -0.000000 -0.000000
RightFoot 32.341572 -15.897092 -0.655115
RightToeBase 21.219802 -0.000000 -0.000000
1454
root 6.287333 33.169931 5.027188 -11.205257 13.632863 -13.389611
Spine 9.673718 -6.740089 7.271319
Head 10.647922 -9.879957 7.407454
LeftShoulder -12.485002 -2.454299 28.897927
LeftArm -5.171230 -6.681218 -80.781329
LeftForeArm -10.518729 -0.000000 113.893151
LeftHand 13.059953 0.000000 -7.338890
LeftHandThumb1 -26.253704 0.000000 33.147579
RightShoulder -21.492767 -17.279584 -19.194197
RightArm 11.309185 -22.034982 87.937210
RightForeArm -12.267209 -0.000000 10.327837
RightHand 17.686169 -0.000000 7.625551
RightHandThumb1 -24.326973 -0.000000 -32.862282
LeftUpLeg 14.980711 -3.855703 6.435368
LeftLeg -1.599892 -0.000000 0.000000
LeftFoot -13.843068 8.633645 -14.417943
LeftToeBase 20.356802 -0.000000 -0.000000
RightUpLeg -51.397947 15.796846 1.788343
RightLeg 118.998407 -0.000000 -0.000000
RightFoot 32.490539 -15.919847 -0.781775
RightToeBase 20.672073 -0.000000 -0.000000
1455
root 6.297022 33.156769 5.020706 -11.131406 13.477243 -13.255984
Spine 9.668667 -6.718279 7.169322
Head 10.597071 -9.718077 7.266710
LeftShoulder -12.574495 -2.382311 28.878427
LeftArm -5.142228 -6.640842 -80.805159
LeftForeArm -10.441088 -0.000000 113.968152
LeftHand 13.079673 -0.000000 -7.293632
LeftHandThumb1 -26.253704 0.000000 33.147579
RightShoulder -21.480718 -17.329550 -19.230784
RightArm 11.293729 -22.149445 87.990853
RightForeArm -12.217010 -0.000000 10.369569
RightHand 17.680254 -0.000000 7.534069
RightHandThumb1 -24.326973 -0.000000 -32.862282
LeftUpLeg 15.017597 -3.737192 6.305322
LeftLeg -1.676495 -0.000000 0.000000
LeftFoot -13.842116 8.652074 -14.455449
LeftToeBase 20.375593 -0.000000 -0.000000
RightUpLeg -51.298906 15.711267 1.862419
RightLeg 118.723881 -0.000000 -0.000000
RightFoot 32.724155 -15.783534 -1.183720
RightToeBase 20.381465 -0.000000 -0.000000
1456
root 6.307529 33.143932 5.015575 -11.061275 13.328212 -13.133796
Spine 9.651527 -6.683226 7.094639
Head 10.565521 -9.575691 7.109210
LeftShoulder -12.627977 -2.342484 28.855886
LeftArm -5.149904 -6.593050 -80.817744
LeftForeArm -10.428172 -0.000000 114.048567
LeftHand 13.064265 -0.000000 -7.171260
LeftHandThumb1 -26.253704 0.000000 33.147579
RightShoulder -21.440624 -17.350956 -19.298936
RightArm 11.196974 -21.919023 88.159847
RightForeArm -12.467017 -0.000000 10.352684
RightHand 17.884100 -0.000000 7.646346
RightHandThumb1 -24.326973 -0.000000 -32.862282
LeftUpLeg 15.054453 -3.640187 6.184037
LeftLeg -1.753617 -0.000000 0.000000
LeftFoot -13.838552 8.680447 -14.474405
LeftToeBase 20.324766 -0.000000 -0.000000
RightUpLeg -51.181364 15.668932 1.909636
RightLeg 118.431180 -0.000000 -0.000000
RightFoot 32.408325 -15.818094 -0.995550
RightToeBase 21.144487 -0.000000 -0.000000
1457
root 6.316467 33.132061 5.008387 -10.964351 13.173427 -13.006157
Spine 9.604311 -6.598847 7.020747
Head 10.538525 -9.479224 6.973880
LeftShoulder -12.634284 -2.301174 28.829207
LeftArm -5.143770 -6.563666 -80.817007
LeftForeArm -10.412614 0.000000 114.122082
LeftHand 13.012343 -0.000000 -7.269753
LeftHandThumb1 -26.253704 0.000000 33.147579
RightShoulder -21.430112 -17.404132 -19.334683
RightArm 11.141694 -21.882090 88.257499
RightForeArm -12.442285 -0.000000 10.342947
RightHand 17.846039 -0.000000 7.608810
RightHandThumb1 -24.326973 -0.000000 -32.862282
LeftUpLeg 15.053304 -3.540781 6.057793
LeftLeg -1.811320 -0.000000 0.000000
LeftFoot -13.846709 8.715905 -14.534708
LeftToeBase 20.365817 -0.000000 -0.000000
RightUpLeg -51.071596 15.643249 1.956538
RightLeg 118.033890 -0.000000 -0.000000
RightFoot 32.483766 -15.620034 -1.379460
RightToeBase 20.501487 -0.000000 -0.000000
1458
root 6.326311 33.120410 4.998464 -10.864887 13.024496 -12.887206
Spine 9.557101 -6.511335 6.965819
Head 10.511402 -9.386163 6.832283
LeftShoulder -12.626241 -2.286814 28.811285
LeftArm -5.145640 -6.509091 -80.830430
LeftForeArm -10.389245 0.000000 114.176412
LeftHand 12.992743 0.000000 -7.290543
LeftHandThumb1 -26.253704 0.000000 33.147579
RightShoulder -21.421583 -17.433026 -19.374246
RightArm 11.081611 -21.928363 88.331491
RightForeArm -12.582446 -0.000000 10.322961
RightHand 17.859268 -0.000000 7.582534
RightHandThumb1 -24.326973 -0.000000 -32.862282
LeftUpLeg 15.020936 -3.498592 5.920230
LeftLeg -1.813127 -0.000000 0.000000
LeftFoot -13.916366 8.807025 -14.581236
LeftToeBase 20.348782 -0.000000 -0.000000
RightUpLeg -50.970005 15.612444 1.983665
RightLeg 117.580073 -0.000000 -0.000000
RightFoot 32.546648 -15.438767 -1.704798
RightToeBase 19.785388 -0.000000 -0.000000
1459
root 6.334883 33.109183 4.991695 -10.786772 12.888024 -12.774196
Spine 9.528910 -6.432007 6.900108
Head 10.481523 -9.286007 6.747074
LeftShoulder -12.620980 -2.258388 28.810340
LeftArm -5.135893 -6.443660 -80.848785
LeftForeArm -10.415048 0.000000 114.232908
LeftHand 12.957911 -0.000000 -7.253929
LeftHandThumb1 -26.253704 0.000000 33.147579
RightShoulder -21.426467 -17.464169 -19.397764
RightArm 11.042237 -21.993925 88.393733
RightForeArm -12.548773 -0.000000 10.291702
RightHand 17.767272 -0.000000 7.694948
RightHandThumb1 -24.326973 -0.000000 -32.862282
LeftUpLeg 15.014113 -3.436631 5.795307
LeftLeg -1.842691 -0.000000 0.000000
LeftFoot -13.937133 8.889271 -14.571719
LeftToeBase 20.302726 -0.000000 -0.000000
RightUpLeg -50.814649 15.636151 2.014666
RightLeg 117.124775 -0.000000 -0.000000
RightFoot 32.114275 -15.438502 -1.481723
RightToeBase 20.469599 -0.000000 -0.000000
1460
root 6.343753 33.099640 4.982657 -10.689939 12.733908 -12.667923
Spine 9.477085 -6.325224 6.855470
Head 10.462786 -9.200536 6.658015
LeftShoulder -12.624033 -2.222169 28.793956
LeftArm -5.097145 -6.386593 -80.858049
LeftForeArm -10.461964 -0.000000 114.256971
LeftHand 12.955588 0.000000 -7.369211
LeftHandThumb1 -26.253704 0.000000 33.147579
RightShoulder -21.416107 -17.500856 -19.406981
RightArm 11.002363 -22.046006 88.424055
RightForeArm -12.578013 -0.000000 10.259991
RightHand 17.767934 -0.000000 7.928451
RightHandThumb1 -24.326973 -0.000000 -32.862282
LeftUpLeg 14.981594 -3.378730 5.672022
LeftLeg -1.871614 -0.000000 0.000000
LeftFoot -13.952789 9.014918 -14.588536
LeftToeBase 20.378182 -0.000000 -0.000000
RightUpLeg -50.653718 15.655759 2.061964
RightLeg 116.548633 -0.000000 -0.000000
RightFoot 32.138615 -15.261258 -1.893555
RightToeBase 20.053863 -0.000000 -0.000000
